<?xml version="1.0" encoding="UTF-8" standalone="no"?>
<!-- Created with Inkscape (http://www.inkscape.org/) -->

<svg
   xmlns:osb="http://www.openswatchbook.org/uri/2009/osb"
   xmlns:dc="http://purl.org/dc/elements/1.1/"
   xmlns:cc="http://creativecommons.org/ns#"
   xmlns:rdf="http://www.w3.org/1999/02/22-rdf-syntax-ns#"
   xmlns:svg="http://www.w3.org/2000/svg"
   xmlns="http://www.w3.org/2000/svg"
   xmlns:sodipodi="http://sodipodi.sourceforge.net/DTD/sodipodi-0.dtd"
   xmlns:inkscape="http://www.inkscape.org/namespaces/inkscape"
   width="48"
   height="48"
   viewBox="0 0 12.7 12.7"
   version="1.1"
   id="svg8"
   inkscape:version="0.92.4 (5da689c313, 2019-01-14)"
   sodipodi:docname="drawing.svg">
  <defs
     id="defs2">
    <linearGradient
       id="linearGradient4861"
       osb:paint="solid">
      <stop
         style="stop-color:#0066ff;stop-opacity:1;"
         offset="0"
         id="stop4859" />
    </linearGradient>
    <inkscape:perspective
       sodipodi:type="inkscape:persp3d"
       inkscape:vp_x="0 : 6.35 : 1"
       inkscape:vp_y="0 : 1000 : 0"
       inkscape:vp_z="12.7 : 6.35 : 1"
       inkscape:persp3d-origin="6.35 : 4.2333333 : 1"
       id="perspective4680" />
  </defs>
  <sodipodi:namedview
     id="base"
     pagecolor="#ffffff"
     bordercolor="#666666"
     borderopacity="1.0"
     inkscape:pageopacity="0.0"
     inkscape:pageshadow="2"
     inkscape:zoom="0.70710678"
     inkscape:cx="-17543.721"
     inkscape:cy="-16583.395"
     inkscape:document-units="px"
     inkscape:current-layer="layer2"
     showgrid="true"
     showguides="false"
     showborder="false"
     units="px"
     inkscape:window-width="1920"
     inkscape:window-height="1017"
     inkscape:window-x="-8"
     inkscape:window-y="-8"
     inkscape:window-maximized="1">
    <inkscape:grid
       type="xygrid"
       id="grid3721" />
  </sodipodi:namedview>
  <metadata
     id="metadata5">
    <rdf:RDF>
      <cc:Work
         rdf:about="">
        <dc:format>image/svg+xml</dc:format>
        <dc:type
           rdf:resource="http://purl.org/dc/dcmitype/StillImage" />
        <dc:title />
      </cc:Work>
    </rdf:RDF>
  </metadata>
  <g
     inkscape:label="Layer 1"
     inkscape:groupmode="layer"
     id="layer1"
     transform="translate(0,-284.3)"
     style="display:inline">
    <path
       style="fill:#d4ff2a;stroke-width:0.99999994;fill-opacity:1"
       d="M -17440 16223 A 54.999999 54.999999 0 0 0 -17495 16278 A 54.999999 54.999999 0 0 0 -17440 16333 A 54.999999 54.999999 0 0 0 -17439.344 16332.977 L -17439.344 16333 L -17329.344 16333 L -17329.344 16223 L -17439.344 16223 L -17439.344 16223.033 A 54.999999 54.999999 0 0 0 -17440 16223 z "
       transform="matrix(0.26458333,0,0,0.26458333,0,284.3)"
       id="path4528-3"
       inkscape:export-filename="C:\Users\Lazar\logo.png"
       inkscape:export-xdpi="96.799843"
       inkscape:export-ydpi="96.799843" />
  </g>
  <g
     inkscape:groupmode="layer"
     id="layer2"
     inkscape:label="Layer 2"
     style="display:inline">
    <path
       style="display:inline;fill:#0066ff;stroke-width:0.99999994"
       d="M -17330 16223 A 54.999998 54.999998 0 0 0 -17385 16278 A 54.999998 54.999998 0 0 0 -17330 16333 L -17275 16333 L -17275.057 16773 L -17274.729 16773 A 54.999998 54.999998 0 0 0 -17220 16823 A 54.999998 54.999998 0 0 0 -17165.25 16773 L -17165.057 16773 L -17165.057 16769.119 A 54.999998 54.999998 0 0 0 -17165 16768 A 54.999998 54.999998 0 0 0 -17165.057 16766.436 L -17165.029 16558 L -17165.25 16558 A 54.999998 54.999998 0 0 1 -17220 16608 A 54.999998 54.999998 0 0 1 -17274.729 16558 L -17275 16558 L -17275 16448 L -17274.988 16448 A 54.999998 54.999998 0 0 1 -17275 16447.646 A 54.999998 54.999998 0 0 1 -17220 16392.646 A 54.999998 54.999998 0 0 1 -17165.016 16447.348 L -17165 16333 L -16945.004 16333 A 54.999998 54.999998 0 0 0 -16945 16333 A 54.999998 54.999998 0 0 0 -16890.004 16278 A 54.999998 54.999998 0 0 0 -16945 16223 A 54.999998 54.999998 0 0 0 -16945.004 16223 L -17330 16223 z M -17165.016 16447.949 A 54.999998 54.999998 0 0 1 -17165.018 16448 L -17165.016 16448 L -17165.016 16447.949 z "
       transform="scale(0.26458333)"
       id="path4528"
       inkscape:export-filename="C:\Users\Lazar\logo.png"
       inkscape:export-xdpi="96.799843"
       inkscape:export-ydpi="96.799843" />
    <path
       style="display:inline;fill:#d4ff2a;fill-opacity:1;stroke-width:0.10289876"
       d="m -4521.7292,4351.8694 v 0 a 14.552083,14.552083 0 0 0 -14.5251,14.551 14.552083,14.552083 0 0 0 14.5251,14.5505 v 0 h 0.027 14.5251 v -0.035 a 14.552083,14.552083 0 0 0 0.6885,0.035 14.552083,14.552083 0 0 0 14.552,-14.5521 14.552083,14.552083 0 0 0 -14.552,-14.5521 14.552083,14.552083 0 0 0 -0.6885,0.024 v -0.024 h -14.5251 z"
       id="rect4594"
       inkscape:export-filename="C:\Users\Lazar\logo.png"
       inkscape:export-xdpi="96.799843"
       inkscape:export-ydpi="96.799843"
       inkscape:connector-curvature="0" />
    <path
       inkscape:connector-curvature="0"
       style="display:inline;opacity:1;fill:#d4ff2a;fill-opacity:1;stroke-width:0.26458332"
       d="m -4541.5729,4366.4188 a 14.552083,14.552083 0 0 1 -14.5522,14.5521 14.552083,14.552083 0 0 1 -14.5519,-14.5521 14.552083,14.552083 0 0 1 14.5519,-14.552 14.552083,14.552083 0 0 1 14.5522,14.552 z"
       id="path4528-9-5-8"
       inkscape:export-filename="C:\Users\Lazar\logo.png"
       inkscape:export-xdpi="96.799843"
       inkscape:export-ydpi="96.799843" />
  </g>
</svg>
